<svg width="48" height="27" viewBox="0 0 48 27" fill="none" xmlns="http://www.w3.org/2000/svg">
<path opacity="0.5" fill-rule="evenodd" clip-rule="evenodd" d="M23.4845 26.887H26.3537C26.3537 26.887 27.2203 26.7932 27.6628 26.3228C28.0701 25.8911 28.057 25.0802 28.057 25.0802C28.057 25.0802 28.001 21.2842 29.7878 20.7253C31.5491 20.1746 33.8109 24.394 36.2083 26.0164C38.0211 27.2442 39.3987 26.975 39.3987 26.975L45.8088 26.887C45.8088 26.887 49.1621 26.6833 47.5721 24.0837C47.4418 23.871 46.6462 22.1606 42.8061 18.6461C38.7868 14.9677 39.3251 15.5627 44.1667 9.19986C47.1153 5.32486 48.2941 2.95913 47.926 1.94588C47.5747 0.980828 45.4061 1.23591 45.4061 1.23591L38.1886 1.28024C38.1886 1.28024 37.6536 1.20828 37.2568 1.44215C36.8691 1.67153 36.6195 2.2061 36.6195 2.2061C36.6195 2.2061 35.4772 5.20471 33.9536 7.75484C30.7398 13.1359 29.4548 13.4199 28.9296 13.0858C27.7077 12.3071 28.0127 9.95738 28.0127 8.28813C28.0127 3.07349 28.8149 0.89923 26.4507 0.336389C25.6662 0.149417 25.0888 0.0260547 23.0825 0.00613681C20.5072 -0.0202062 18.3275 0.0138461 17.0933 0.610098C16.2722 1.00653 15.6388 1.88998 16.0246 1.94074C16.5016 2.00371 17.582 2.22795 18.1548 2.99703C18.8944 3.98908 18.8683 6.21731 18.8683 6.21731C18.8683 6.21731 19.2932 12.3559 17.8759 13.1185C16.903 13.6416 15.5685 12.5737 12.7032 7.69188C11.2351 5.19122 10.1267 2.42712 10.1267 2.42712C10.1267 2.42712 9.91295 1.91054 9.53174 1.63426C9.06908 1.29951 8.42266 1.19286 8.42266 1.19286L1.56422 1.23719C1.56422 1.23719 0.534644 1.26546 0.156697 1.70687C-0.179546 2.09944 0.12998 2.91158 0.12998 2.91158C0.12998 2.91158 5.49944 15.2979 11.5792 21.54C17.1539 27.2628 23.4845 26.887 23.4845 26.887Z" fill="white"/>
</svg>
